<mxfile host="65bd71144e">
    <diagram id="YRbo-Sp2Q4J2ANg555Y-" name="Page-1">
        <mxGraphModel dx="939" dy="879" grid="1" gridSize="10" guides="1" tooltips="1" connect="1" arrows="1" fold="1" page="1" pageScale="1" pageWidth="850" pageHeight="1100" math="0" shadow="0">
            <root>
                <mxCell id="0"/>
                <mxCell id="1" parent="0"/>
                <mxCell id="5" value="" style="edgeStyle=none;html=1;" edge="1" parent="1" source="3" target="4">
                    <mxGeometry relative="1" as="geometry"/>
                </mxCell>
                <mxCell id="3" value="Question&lt;br&gt;&lt;br&gt;id&lt;br&gt;uuid&lt;br&gt;question&lt;br&gt;focus&lt;br&gt;unit&lt;br&gt;back_image&lt;br&gt;min&lt;br&gt;max&lt;br&gt;default&lt;br&gt;warp_function" style="whiteSpace=wrap;html=1;" vertex="1" parent="1">
                    <mxGeometry x="490" y="540" width="120" height="250" as="geometry"/>
                </mxCell>
                <mxCell id="7" value="" style="edgeStyle=none;html=1;" edge="1" parent="1" source="4" target="6">
                    <mxGeometry relative="1" as="geometry"/>
                </mxCell>
                <mxCell id="4" value="Survey_Question&lt;br&gt;&lt;br&gt;id&lt;br&gt;survey_uuid&lt;br&gt;question_uuid" style="whiteSpace=wrap;html=1;" vertex="1" parent="1">
                    <mxGeometry x="270" y="640" width="120" height="140" as="geometry"/>
                </mxCell>
                <mxCell id="9" value="" style="edgeStyle=none;html=1;exitX=0.5;exitY=1;exitDx=0;exitDy=0;" edge="1" parent="1" source="4" target="8">
                    <mxGeometry relative="1" as="geometry"/>
                </mxCell>
                <mxCell id="12" value="" style="edgeStyle=none;html=1;" edge="1" parent="1" source="6" target="8">
                    <mxGeometry relative="1" as="geometry"/>
                </mxCell>
                <mxCell id="6" value="Survey&lt;br&gt;&lt;br&gt;id&lt;br&gt;...&lt;br&gt;..." style="whiteSpace=wrap;html=1;" vertex="1" parent="1">
                    <mxGeometry x="30" y="770" width="120" height="250" as="geometry"/>
                </mxCell>
                <mxCell id="11" value="" style="edgeStyle=none;html=1;" edge="1" parent="1" source="8" target="10">
                    <mxGeometry relative="1" as="geometry"/>
                </mxCell>
                <mxCell id="8" value="Survey_Question_Answer&lt;br&gt;&lt;br&gt;id&lt;br&gt;survey_uuid&lt;br&gt;question_uuid&lt;br&gt;answer_uuid&lt;br&gt;user_id&lt;br&gt;creation_date" style="whiteSpace=wrap;html=1;" vertex="1" parent="1">
                    <mxGeometry x="250" y="810" width="150" height="190" as="geometry"/>
                </mxCell>
                <mxCell id="14" value="" style="edgeStyle=none;html=1;exitX=0.613;exitY=1.001;exitDx=0;exitDy=0;exitPerimeter=0;" edge="1" parent="1" source="8" target="13">
                    <mxGeometry relative="1" as="geometry"/>
                </mxCell>
                <mxCell id="10" value="Answer&lt;br&gt;&lt;br&gt;id&lt;br&gt;uuid&lt;br&gt;answer_unit&lt;br&gt;int_answer&lt;br&gt;string_answer" style="whiteSpace=wrap;html=1;" vertex="1" parent="1">
                    <mxGeometry x="480" y="830" width="140" height="150" as="geometry"/>
                </mxCell>
                <mxCell id="13" value="User&lt;br&gt;&lt;br&gt;id&lt;br&gt;..." style="whiteSpace=wrap;html=1;" vertex="1" parent="1">
                    <mxGeometry x="270" y="1060" width="140" height="110" as="geometry"/>
                </mxCell>
            </root>
        </mxGraphModel>
    </diagram>
</mxfile>